<?xml version="1.0" encoding="utf-8"?>
<svg version="1.1" xmlns:xlink="http://www.w3.org/1999/xlink" width="154px" height="54px" xmlns="http://www.w3.org/2000/svg">
  <g transform="matrix(1 0 0 1 -236 0 )">
    <path d="M 236.5 2  A 1.5 1.5 0 0 1 238 0.5 L 388 0.5  A 1.5 1.5 0 0 1 389.5 2 L 389.5 52  A 1.5 1.5 0 0 1 388 53.5 L 238 53.5  A 1.5 1.5 0 0 1 236.5 52 L 236.5 2  Z " fill-rule="nonzero" fill="#ffffff" stroke="none" />
    <path d="M 236.5 2  A 1.5 1.5 0 0 1 238 0.5 L 388 0.5  A 1.5 1.5 0 0 1 389.5 2 L 389.5 52  A 1.5 1.5 0 0 1 388 53.5 L 238 53.5  A 1.5 1.5 0 0 1 236.5 52 L 236.5 2  Z " stroke-width="1" stroke="#5fb878" fill="none" />
  </g>
</svg>