<?xml version="1.0" encoding="utf-8"?>
<svg version="1.1" xmlns:xlink="http://www.w3.org/1999/xlink" width="151px" height="54px" xmlns="http://www.w3.org/2000/svg">
  <g transform="matrix(1 0 0 1 72 0 )">
    <path d="M -71.5 2  A 1.5 1.5 0 0 1 -70 0.5 L 77 0.5  A 1.5 1.5 0 0 1 78.5 2 L 78.5 52  A 1.5 1.5 0 0 1 77 53.5 L -70 53.5  A 1.5 1.5 0 0 1 -71.5 52 L -71.5 2  Z " fill-rule="nonzero" fill="#ffffff" stroke="none" />
    <path d="M -71.5 2  A 1.5 1.5 0 0 1 -70 0.5 L 77 0.5  A 1.5 1.5 0 0 1 78.5 2 L 78.5 52  A 1.5 1.5 0 0 1 77 53.5 L -70 53.5  A 1.5 1.5 0 0 1 -71.5 52 L -71.5 2  Z " stroke-width="1" stroke="#5fb878" fill="none" />
  </g>
</svg>