<?xml version="1.0" encoding="utf-8"?>
<svg version="1.1" xmlns:xlink="http://www.w3.org/1999/xlink" width="76px" height="38px" xmlns="http://www.w3.org/2000/svg">
  <g transform="matrix(1 0 0 1 -1149 -130 )">
    <path d="M 1150 132  A 1 1 0 0 1 1151 131 L 1223 131  A 1 1 0 0 1 1224 132 L 1224 166  A 1 1 0 0 1 1223 167 L 1151 167  A 1 1 0 0 1 1150 166 L 1150 132  Z " fill-rule="nonzero" fill="#4bb2ff" stroke="none" fill-opacity="0.8" />
    <path d="M 1149.5 132  A 1.5 1.5 0 0 1 1151 130.5 L 1223 130.5  A 1.5 1.5 0 0 1 1224.5 132 L 1224.5 166  A 1.5 1.5 0 0 1 1223 167.5 L 1151 167.5  A 1.5 1.5 0 0 1 1149.5 166 L 1149.5 132  Z " stroke-width="1" stroke="#4bb2ff" fill="none" stroke-opacity="0.8" />
  </g>
</svg>