<?xml version="1.0" encoding="utf-8"?>
<svg version="1.1" xmlns:xlink="http://www.w3.org/1999/xlink" width="25px" height="25px" xmlns="http://www.w3.org/2000/svg">
  <g transform="matrix(1 0 0 1 -448 -73 )">
    <path d="M 460.5 73  C 467.5 73  473 78.5  473 85.5  C 473 92.5  467.5 98  460.5 98  C 453.5 98  448 92.5  448 85.5  C 448 78.5  453.5 73  460.5 73  Z " fill-rule="nonzero" fill="#000000" stroke="none" />
    <path d="M 460.5 73.5  C 467.22 73.5  472.5 78.78  472.5 85.5  C 472.5 92.22  467.22 97.5  460.5 97.5  C 453.78 97.5  448.5 92.22  448.5 85.5  C 448.5 78.78  453.78 73.5  460.5 73.5  Z " stroke-width="1" stroke="#797979" fill="none" />
  </g>
</svg>