<?xml version="1.0" encoding="utf-8"?>
<svg version="1.1" xmlns:xlink="http://www.w3.org/1999/xlink" width="91px" height="54px" xmlns="http://www.w3.org/2000/svg">
  <g transform="matrix(1 0 0 1 -760 0 )">
    <path d="M 760.5 2  A 1.5 1.5 0 0 1 762 0.5 L 849 0.5  A 1.5 1.5 0 0 1 850.5 2 L 850.5 52  A 1.5 1.5 0 0 1 849 53.5 L 762 53.5  A 1.5 1.5 0 0 1 760.5 52 L 760.5 2  Z " fill-rule="nonzero" fill="#ffffff" stroke="none" />
    <path d="M 760.5 2  A 1.5 1.5 0 0 1 762 0.5 L 849 0.5  A 1.5 1.5 0 0 1 850.5 2 L 850.5 52  A 1.5 1.5 0 0 1 849 53.5 L 762 53.5  A 1.5 1.5 0 0 1 760.5 52 L 760.5 2  Z " stroke-width="1" stroke="#5fb878" fill="none" />
  </g>
</svg>