<?xml version="1.0" encoding="utf-8"?>
<svg version="1.1" xmlns:xlink="http://www.w3.org/1999/xlink" width="87px" height="54px" xmlns="http://www.w3.org/2000/svg">
  <g transform="matrix(1 0 0 1 -673 0 )">
    <path d="M 673.5 2  A 1.5 1.5 0 0 1 675 0.5 L 758 0.5  A 1.5 1.5 0 0 1 759.5 2 L 759.5 52  A 1.5 1.5 0 0 1 758 53.5 L 675 53.5  A 1.5 1.5 0 0 1 673.5 52 L 673.5 2  Z " fill-rule="nonzero" fill="#ffffff" stroke="none" />
    <path d="M 673.5 2  A 1.5 1.5 0 0 1 675 0.5 L 758 0.5  A 1.5 1.5 0 0 1 759.5 2 L 759.5 52  A 1.5 1.5 0 0 1 758 53.5 L 675 53.5  A 1.5 1.5 0 0 1 673.5 52 L 673.5 2  Z " stroke-width="1" stroke="#5fb878" fill="none" />
  </g>
</svg>