<?xml version="1.0" encoding="utf-8"?>
<svg version="1.1" xmlns:xlink="http://www.w3.org/1999/xlink" width="25px" height="29px" xmlns="http://www.w3.org/2000/svg">
  <g transform="matrix(1 0 0 1 -514 -6211 )">
    <path d="M 526.5 6211  C 533.5 6211  539 6217.38  539 6225.5  C 539 6233.62  533.5 6240  526.5 6240  C 519.5 6240  514 6233.62  514 6225.5  C 514 6217.38  519.5 6211  526.5 6211  Z " fill-rule="nonzero" fill="#000000" stroke="none" />
    <path d="M 526.5 6211.5  C 533.22 6211.5  538.5 6217.66  538.5 6225.5  C 538.5 6233.34  533.22 6239.5  526.5 6239.5  C 519.78 6239.5  514.5 6233.34  514.5 6225.5  C 514.5 6217.66  519.78 6211.5  526.5 6211.5  Z " stroke-width="1" stroke="#797979" fill="none" />
  </g>
</svg>