<?xml version="1.0" encoding="utf-8"?>
<svg version="1.1" xmlns:xlink="http://www.w3.org/1999/xlink" width="133px" height="10px" preserveAspectRatio="xMinYMid meet" viewBox="715 3095  133 8" xmlns="http://www.w3.org/2000/svg">
  <path d="M 544 1660  L 775 1660  A 3 3 0 0 1 778 1657 A 3 3 0 0 1 781 1660 L 807 1660  A 3 3 0 0 1 810 1657 A 3 3 0 0 1 813 1660 L 838 1660  A 5 5 0 0 1 843 1665 L 843 3094  A 5 5 0 0 1 838 3099 L 813 3099  A 3 3 0 0 0 810 3096 A 3 3 0 0 0 807 3099 L 715 3099  " stroke-width="2" stroke="#25a211" fill="none" />
</svg>