<?xml version="1.0" encoding="utf-8"?>
<svg version="1.1" xmlns:xlink="http://www.w3.org/1999/xlink" width="97px" height="54px" xmlns="http://www.w3.org/2000/svg">
  <g transform="matrix(1 0 0 1 -52 0 )">
    <path d="M 52.5 2  A 1.5 1.5 0 0 1 54 0.5 L 147 0.5  A 1.5 1.5 0 0 1 148.5 2 L 148.5 52  A 1.5 1.5 0 0 1 147 53.5 L 54 53.5  A 1.5 1.5 0 0 1 52.5 52 L 52.5 2  Z " fill-rule="nonzero" fill="#ffffff" stroke="none" />
    <path d="M 52.5 2  A 1.5 1.5 0 0 1 54 0.5 L 147 0.5  A 1.5 1.5 0 0 1 148.5 2 L 148.5 52  A 1.5 1.5 0 0 1 147 53.5 L 54 53.5  A 1.5 1.5 0 0 1 52.5 52 L 52.5 2  Z " stroke-width="1" stroke="#5fb878" fill="none" />
  </g>
</svg>