<?xml version="1.0" encoding="utf-8"?>
<svg version="1.1" xmlns:xlink="http://www.w3.org/1999/xlink" width="47px" height="46px" xmlns="http://www.w3.org/2000/svg">
  <g transform="matrix(1 0 0 1 288 0 )">
    <path d="M -287.5 2  A 1.5 1.5 0 0 1 -286 0.5 L -243 0.5  A 1.5 1.5 0 0 1 -241.5 2 L -241.5 44  A 1.5 1.5 0 0 1 -243 45.5 L -286 45.5  A 1.5 1.5 0 0 1 -287.5 44 L -287.5 2  Z " fill-rule="nonzero" fill="#ffffff" stroke="none" />
    <path d="M -287.5 2  A 1.5 1.5 0 0 1 -286 0.5 L -243 0.5  A 1.5 1.5 0 0 1 -241.5 2 L -241.5 44  A 1.5 1.5 0 0 1 -243 45.5 L -286 45.5  A 1.5 1.5 0 0 1 -287.5 44 L -287.5 2  Z " stroke-width="1" stroke="#5fb878" fill="none" />
  </g>
</svg>