<?xml version="1.0" encoding="utf-8"?>
<svg version="1.1" xmlns:xlink="http://www.w3.org/1999/xlink" width="105px" height="46px" xmlns="http://www.w3.org/2000/svg">
  <g transform="matrix(1 0 0 1 -457 0 )">
    <path d="M 457.5 2  A 1.5 1.5 0 0 1 459 0.5 L 560 0.5  A 1.5 1.5 0 0 1 561.5 2 L 561.5 44  A 1.5 1.5 0 0 1 560 45.5 L 459 45.5  A 1.5 1.5 0 0 1 457.5 44 L 457.5 2  Z " fill-rule="nonzero" fill="#ffffff" stroke="none" />
    <path d="M 457.5 2  A 1.5 1.5 0 0 1 459 0.5 L 560 0.5  A 1.5 1.5 0 0 1 561.5 2 L 561.5 44  A 1.5 1.5 0 0 1 560 45.5 L 459 45.5  A 1.5 1.5 0 0 1 457.5 44 L 457.5 2  Z " stroke-width="1" stroke="#5fb878" fill="none" />
  </g>
</svg>