<?xml version="1.0" encoding="utf-8"?>
<svg version="1.1" xmlns:xlink="http://www.w3.org/1999/xlink" width="77px" height="46px" xmlns="http://www.w3.org/2000/svg">
  <g transform="matrix(1 0 0 1 -562 0 )">
    <path d="M 562.5 2  A 1.5 1.5 0 0 1 564 0.5 L 637 0.5  A 1.5 1.5 0 0 1 638.5 2 L 638.5 44  A 1.5 1.5 0 0 1 637 45.5 L 564 45.5  A 1.5 1.5 0 0 1 562.5 44 L 562.5 2  Z " fill-rule="nonzero" fill="#ffffff" stroke="none" />
    <path d="M 562.5 2  A 1.5 1.5 0 0 1 564 0.5 L 637 0.5  A 1.5 1.5 0 0 1 638.5 2 L 638.5 44  A 1.5 1.5 0 0 1 637 45.5 L 564 45.5  A 1.5 1.5 0 0 1 562.5 44 L 562.5 2  Z " stroke-width="1" stroke="#5fb878" fill="none" />
  </g>
</svg>