<?xml version="1.0" encoding="utf-8"?>
<svg version="1.1" xmlns:xlink="http://www.w3.org/1999/xlink" width="104px" height="46px" xmlns="http://www.w3.org/2000/svg">
  <g transform="matrix(1 0 0 1 -49 0 )">
    <path d="M 49.5 2  A 1.5 1.5 0 0 1 51 0.5 L 151 0.5  A 1.5 1.5 0 0 1 152.5 2 L 152.5 44  A 1.5 1.5 0 0 1 151 45.5 L 51 45.5  A 1.5 1.5 0 0 1 49.5 44 L 49.5 2  Z " fill-rule="nonzero" fill="#ffffff" stroke="none" />
    <path d="M 49.5 2  A 1.5 1.5 0 0 1 51 0.5 L 151 0.5  A 1.5 1.5 0 0 1 152.5 2 L 152.5 44  A 1.5 1.5 0 0 1 151 45.5 L 51 45.5  A 1.5 1.5 0 0 1 49.5 44 L 49.5 2  Z " stroke-width="1" stroke="#5fb878" fill="none" />
  </g>
</svg>