<?xml version="1.0" encoding="utf-8"?>
<svg version="1.1" xmlns:xlink="http://www.w3.org/1999/xlink" width="106px" height="18px" xmlns="http://www.w3.org/2000/svg">
  <g transform="matrix(1 0 0 1 -345 -19 )">
    <path d="M 345.5 21  A 1.5 1.5 0 0 1 347 19.5 L 449 19.5  A 1.5 1.5 0 0 1 450.5 21 L 450.5 35  A 1.5 1.5 0 0 1 449 36.5 L 347 36.5  A 1.5 1.5 0 0 1 345.5 35 L 345.5 21  Z " fill-rule="nonzero" fill="#ffffff" stroke="none" />
    <path d="M 345.5 21  A 1.5 1.5 0 0 1 347 19.5 L 449 19.5  A 1.5 1.5 0 0 1 450.5 21 L 450.5 35  A 1.5 1.5 0 0 1 449 36.5 L 347 36.5  A 1.5 1.5 0 0 1 345.5 35 L 345.5 21  Z " stroke-width="1" stroke="#5fb878" fill="none" />
  </g>
</svg>