<?xml version="1.0" encoding="utf-8"?>
<svg version="1.1" xmlns:xlink="http://www.w3.org/1999/xlink" width="106px" height="19px" xmlns="http://www.w3.org/2000/svg">
  <g transform="matrix(1 0 0 1 -345 0 )">
    <path d="M 345.5 2  A 1.5 1.5 0 0 1 347 0.5 L 449 0.5  A 1.5 1.5 0 0 1 450.5 2 L 450.5 17  A 1.5 1.5 0 0 1 449 18.5 L 347 18.5  A 1.5 1.5 0 0 1 345.5 17 L 345.5 2  Z " fill-rule="nonzero" fill="#ffffff" stroke="none" />
    <path d="M 345.5 2  A 1.5 1.5 0 0 1 347 0.5 L 449 0.5  A 1.5 1.5 0 0 1 450.5 2 L 450.5 17  A 1.5 1.5 0 0 1 449 18.5 L 347 18.5  A 1.5 1.5 0 0 1 345.5 17 L 345.5 2  Z " stroke-width="1" stroke="#5fb878" fill="none" />
  </g>
</svg>