<?xml version="1.0" encoding="utf-8"?>
<svg version="1.1" xmlns:xlink="http://www.w3.org/1999/xlink" width="25px" height="26px" xmlns="http://www.w3.org/2000/svg">
  <g transform="matrix(1 0 0 1 -464 -70 )">
    <path d="M 476.5 70  C 483.5 70  489 75.72  489 83  C 489 90.28  483.5 96  476.5 96  C 469.5 96  464 90.28  464 83  C 464 75.72  469.5 70  476.5 70  Z " fill-rule="nonzero" fill="#000000" stroke="none" />
    <path d="M 476.5 70.5  C 483.22 70.5  488.5 76  488.5 83  C 488.5 90  483.22 95.5  476.5 95.5  C 469.78 95.5  464.5 90  464.5 83  C 464.5 76  469.78 70.5  476.5 70.5  Z " stroke-width="1" stroke="#797979" fill="none" />
  </g>
</svg>