<?xml version="1.0" encoding="utf-8"?>
<svg version="1.1" xmlns:xlink="http://www.w3.org/1999/xlink" width="148px" height="10px" preserveAspectRatio="xMinYMid meet" viewBox="601 3057  148 8" xmlns="http://www.w3.org/2000/svg">
  <path d="M 606 3060  A 1 1 0 0 0 607 3061 L 684 3061  A 3 3 0 0 1 687 3058 A 3 3 0 0 1 690 3061 L 698 3061  A 3 3 0 0 1 701 3058 A 3 3 0 0 1 704 3061 L 739 3061  A 5 5 0 0 1 744 3066 L 744 6853  A 5 5 0 0 1 739 6858 L 658 6858  " stroke-width="2" stroke="#03aa29" fill="none" />
</svg>