<?xml version="1.0" encoding="utf-8"?>
<svg version="1.1" xmlns:xlink="http://www.w3.org/1999/xlink" width="147px" height="54px" xmlns="http://www.w3.org/2000/svg">
  <g transform="matrix(1 0 0 1 -573 0 )">
    <path d="M 573.5 2  A 1.5 1.5 0 0 1 575 0.5 L 718 0.5  A 1.5 1.5 0 0 1 719.5 2 L 719.5 52  A 1.5 1.5 0 0 1 718 53.5 L 575 53.5  A 1.5 1.5 0 0 1 573.5 52 L 573.5 2  Z " fill-rule="nonzero" fill="#ffffff" stroke="none" />
    <path d="M 573.5 2  A 1.5 1.5 0 0 1 575 0.5 L 718 0.5  A 1.5 1.5 0 0 1 719.5 2 L 719.5 52  A 1.5 1.5 0 0 1 718 53.5 L 575 53.5  A 1.5 1.5 0 0 1 573.5 52 L 573.5 2  Z " stroke-width="1" stroke="#5fb878" fill="none" />
  </g>
</svg>