<?xml version="1.0" encoding="utf-8"?>
<svg version="1.1" xmlns:xlink="http://www.w3.org/1999/xlink" width="60px" height="38px" xmlns="http://www.w3.org/2000/svg">
  <g transform="matrix(1 0 0 1 -7144 -92 )">
    <path d="M 7145 94  A 1 1 0 0 1 7146 93 L 7202 93  A 1 1 0 0 1 7203 94 L 7203 128  A 1 1 0 0 1 7202 129 L 7146 129  A 1 1 0 0 1 7145 128 L 7145 94  Z " fill-rule="nonzero" fill="#4bb2ff" stroke="none" fill-opacity="0.8" />
    <path d="M 7144.5 94  A 1.5 1.5 0 0 1 7146 92.5 L 7202 92.5  A 1.5 1.5 0 0 1 7203.5 94 L 7203.5 128  A 1.5 1.5 0 0 1 7202 129.5 L 7146 129.5  A 1.5 1.5 0 0 1 7144.5 128 L 7144.5 94  Z " stroke-width="1" stroke="#4bb2ff" fill="none" stroke-opacity="0.8" />
  </g>
</svg>