<?xml version="1.0" encoding="utf-8"?>
<svg version="1.1" xmlns:xlink="http://www.w3.org/1999/xlink" width="80px" height="50px" xmlns="http://www.w3.org/2000/svg">
  <g transform="matrix(1 0 0 1 -7214 -185 )">
    <path d="M 7214.5 187  A 1.5 1.5 0 0 1 7216 185.5 L 7292 185.5  A 1.5 1.5 0 0 1 7293.5 187 L 7293.5 233  A 1.5 1.5 0 0 1 7292 234.5 L 7216 234.5  A 1.5 1.5 0 0 1 7214.5 233 L 7214.5 187  Z " fill-rule="nonzero" fill="#4bb2ff" stroke="none" />
    <path d="M 7214.5 187  A 1.5 1.5 0 0 1 7216 185.5 L 7292 185.5  A 1.5 1.5 0 0 1 7293.5 187 L 7293.5 233  A 1.5 1.5 0 0 1 7292 234.5 L 7216 234.5  A 1.5 1.5 0 0 1 7214.5 233 L 7214.5 187  Z " stroke-width="1" stroke="#4bb2ff" fill="none" />
  </g>
</svg>