<?xml version="1.0" encoding="utf-8"?>
<svg version="1.1" xmlns:xlink="http://www.w3.org/1999/xlink" width="91px" height="32px" xmlns="http://www.w3.org/2000/svg">
  <defs>
    <mask fill="white" id="clip14">
      <path d="M 0 28  L 0 4  C 0 1.76000000000022  0.363999999999998 0  0.827272727272727 0  L 90.1727272727273 0  C 90.636 0  91 1.76000000000022  91 4  L 91 28  C 91 30.2399999999998  90.636 32  90.1727272727273 32  L 21.0482854864434 32  L 0.827272727272727 32  C 0.363999999999998 32  0 30.2399999999998  0 28  Z " fill-rule="evenodd" />
    </mask>
  </defs>
  <g transform="matrix(1 0 0 1 -913 -1761 )">
    <path d="M 0 28  L 0 4  C 0 1.76000000000022  0.363999999999998 0  0.827272727272727 0  L 90.1727272727273 0  C 90.636 0  91 1.76000000000022  91 4  L 91 28  C 91 30.2399999999998  90.636 32  90.1727272727273 32  L 21.0482854864434 32  L 0.827272727272727 32  C 0.363999999999998 32  0 30.2399999999998  0 28  Z " fill-rule="nonzero" fill="#ffffff" stroke="none" transform="matrix(1 0 0 1 913 1761 )" />
    <path d="M 0 28  L 0 4  C 0 1.76000000000022  0.363999999999998 0  0.827272727272727 0  L 90.1727272727273 0  C 90.636 0  91 1.76000000000022  91 4  L 91 28  C 91 30.2399999999998  90.636 32  90.1727272727273 32  L 21.0482854864434 32  L 0.827272727272727 32  C 0.363999999999998 32  0 30.2399999999998  0 28  Z " stroke-width="2" stroke="#d9d9d9" fill="none" transform="matrix(1 0 0 1 913 1761 )" mask="url(#clip14)" />
  </g>
</svg>