<?xml version="1.0" encoding="utf-8"?>
<svg version="1.1" xmlns:xlink="http://www.w3.org/1999/xlink" width="20px" height="20px" xmlns="http://www.w3.org/2000/svg">
  <g transform="matrix(1 0 0 1 -1738 -3753 )">
    <path d="M 1748 3753  C 1753.6 3753  1758 3757.4  1758 3763  C 1758 3768.6  1753.6 3773  1748 3773  C 1742.4 3773  1738 3768.6  1738 3763  C 1738 3757.4  1742.4 3753  1748 3753  Z " fill-rule="nonzero" fill="#ffffff" stroke="none" />
    <path d="M 1748 3753.5  C 1753.32 3753.5  1757.5 3757.68  1757.5 3763  C 1757.5 3768.32  1753.32 3772.5  1748 3772.5  C 1742.68 3772.5  1738.5 3768.32  1738.5 3763  C 1738.5 3757.68  1742.68 3753.5  1748 3753.5  Z " stroke-width="1" stroke="#797979" fill="none" />
  </g>
</svg>