<?xml version="1.0" encoding="utf-8"?>
<svg version="1.1" xmlns:xlink="http://www.w3.org/1999/xlink" width="433px" height="36px" xmlns="http://www.w3.org/2000/svg">
  <defs>
    <mask fill="white" id="clip15">
      <path d="M 0 31.5  L 0 4.5  C 0 1.98000000000025  1.75999999999999 0  4 0  L 429 0  C 431.24 0  433 1.98000000000025  433 4.5  L 433 31.5  C 433 34.0199999999998  431.24 36  429 36  L 130.869565217391 36  L 4 36  C 1.75999999999999 36  0 34.0199999999998  0 31.5  Z " fill-rule="evenodd" />
    </mask>
  </defs>
  <g transform="matrix(1 0 0 1 -4129 -2855 )">
    <path d="M 0 31.5  L 0 4.5  C 0 1.98000000000025  1.75999999999999 0  4 0  L 429 0  C 431.24 0  433 1.98000000000025  433 4.5  L 433 31.5  C 433 34.0199999999998  431.24 36  429 36  L 130.869565217391 36  L 4 36  C 1.75999999999999 36  0 34.0199999999998  0 31.5  Z " fill-rule="nonzero" fill="#ffffff" stroke="none" transform="matrix(1 0 0 1 4129 2855 )" />
    <path d="M 0 31.5  L 0 4.5  C 0 1.98000000000025  1.75999999999999 0  4 0  L 429 0  C 431.24 0  433 1.98000000000025  433 4.5  L 433 31.5  C 433 34.0199999999998  431.24 36  429 36  L 130.869565217391 36  L 4 36  C 1.75999999999999 36  0 34.0199999999998  0 31.5  Z " stroke-width="2" stroke="#d8d8d8" fill="none" transform="matrix(1 0 0 1 4129 2855 )" mask="url(#clip15)" />
  </g>
</svg>