<?xml version="1.0" encoding="utf-8"?>
<svg version="1.1" xmlns:xlink="http://www.w3.org/1999/xlink" width="215px" height="32px" xmlns="http://www.w3.org/2000/svg">
  <defs>
    <mask fill="white" id="clip11">
      <path d="M 0 28  L 0 4  C 0 1.75999999999999  0.896682464454972 0  2.03791469194313 0  L 152.998660622296 0  L 212.962085308057 0  C 214.103317535545 0  215 1.75999999999999  215 4  L 215 28  C 215 30.24  214.103317535545 32  212.962085308057 32  L 39.2889278109761 32  L 2.03791469194313 32  C 0.896682464454972 32  0 30.24  0 28  Z " fill-rule="evenodd" />
    </mask>
  </defs>
  <g transform="matrix(1 0 0 1 -361 -5309 )">
    <path d="M 0 28  L 0 4  C 0 1.75999999999999  0.896682464454972 0  2.03791469194313 0  L 152.998660622296 0  L 212.962085308057 0  C 214.103317535545 0  215 1.75999999999999  215 4  L 215 28  C 215 30.24  214.103317535545 32  212.962085308057 32  L 39.2889278109761 32  L 2.03791469194313 32  C 0.896682464454972 32  0 30.24  0 28  Z " fill-rule="nonzero" fill="#ffffff" stroke="none" transform="matrix(1 0 0 1 361 5309 )" />
    <path d="M 0 28  L 0 4  C 0 1.75999999999999  0.896682464454972 0  2.03791469194313 0  L 152.998660622296 0  L 212.962085308057 0  C 214.103317535545 0  215 1.75999999999999  215 4  L 215 28  C 215 30.24  214.103317535545 32  212.962085308057 32  L 39.2889278109761 32  L 2.03791469194313 32  C 0.896682464454972 32  0 30.24  0 28  Z " stroke-width="2" stroke="#d9d9d9" fill="none" transform="matrix(1 0 0 1 361 5309 )" mask="url(#clip11)" />
  </g>
</svg>