<?xml version="1.0" encoding="utf-8"?>
<svg version="1.1" xmlns:xlink="http://www.w3.org/1999/xlink" width="14px" height="14px" xmlns="http://www.w3.org/2000/svg">
  <g transform="matrix(1 0 0 1 -2865 -5444 )">
    <path d="M 2872 5444  C 2875.92 5444  2879 5447.08  2879 5451  C 2879 5454.92  2875.92 5458  2872 5458  C 2868.08 5458  2865 5454.92  2865 5451  C 2865 5447.08  2868.08 5444  2872 5444  Z " fill-rule="nonzero" fill="#ffffff" stroke="none" fill-opacity="0" />
    <path d="M 2872 5444.5  C 2875.64 5444.5  2878.5 5447.36  2878.5 5451  C 2878.5 5454.64  2875.64 5457.5  2872 5457.5  C 2868.36 5457.5  2865.5 5454.64  2865.5 5451  C 2865.5 5447.36  2868.36 5444.5  2872 5444.5  Z " stroke-width="1" stroke="#1890ff" fill="none" />
  </g>
</svg>