<?xml version="1.0" encoding="utf-8"?>
<svg version="1.1" xmlns:xlink="http://www.w3.org/1999/xlink" width="14px" height="14px" xmlns="http://www.w3.org/2000/svg">
  <g transform="matrix(1 0 0 1 -2865 -1014 )">
    <path d="M 2872 1014  C 2875.92 1014  2879 1017.08  2879 1021  C 2879 1024.92  2875.92 1028  2872 1028  C 2868.08 1028  2865 1024.92  2865 1021  C 2865 1017.08  2868.08 1014  2872 1014  Z " fill-rule="nonzero" fill="#ffffff" stroke="none" fill-opacity="0" />
    <path d="M 2872 1014.5  C 2875.64 1014.5  2878.5 1017.36  2878.5 1021  C 2878.5 1024.64  2875.64 1027.5  2872 1027.5  C 2868.36 1027.5  2865.5 1024.64  2865.5 1021  C 2865.5 1017.36  2868.36 1014.5  2872 1014.5  Z " stroke-width="1" stroke="#1890ff" fill="none" />
  </g>
</svg>