<?xml version="1.0" encoding="utf-8"?>
<svg version="1.1" xmlns:xlink="http://www.w3.org/1999/xlink" width="14px" height="14px" xmlns="http://www.w3.org/2000/svg">
  <g transform="matrix(1 0 0 1 -2954 -5444 )">
    <path d="M 2961 5444  C 2964.92 5444  2968 5447.08  2968 5451  C 2968 5454.92  2964.92 5458  2961 5458  C 2957.08 5458  2954 5454.92  2954 5451  C 2954 5447.08  2957.08 5444  2961 5444  Z " fill-rule="nonzero" fill="#ffffff" stroke="none" fill-opacity="0" />
    <path d="M 2961 5444.5  C 2964.64 5444.5  2967.5 5447.36  2967.5 5451  C 2967.5 5454.64  2964.64 5457.5  2961 5457.5  C 2957.36 5457.5  2954.5 5454.64  2954.5 5451  C 2954.5 5447.36  2957.36 5444.5  2961 5444.5  Z " stroke-width="1" stroke="#d9d9d9" fill="none" />
  </g>
</svg>