<?xml version="1.0" encoding="utf-8"?>
<svg version="1.1" xmlns:xlink="http://www.w3.org/1999/xlink" width="433px" height="32px" xmlns="http://www.w3.org/2000/svg">
  <defs>
    <mask fill="white" id="clip13">
      <path d="M 0 28  L 0 4  C 0 1.76000000000022  1.75999999999999 0  4 0  L 429 0  C 431.24 0  433 1.76000000000022  433 4  L 433 28  C 433 30.2399999999998  431.24 32  429 32  L 130.869565217391 32  L 4 32  C 1.75999999999999 32  0 30.2399999999998  0 28  Z " fill-rule="evenodd" />
    </mask>
  </defs>
  <g transform="matrix(1 0 0 1 -834 -992 )">
    <path d="M 0 28  L 0 4  C 0 1.76000000000022  1.75999999999999 0  4 0  L 429 0  C 431.24 0  433 1.76000000000022  433 4  L 433 28  C 433 30.2399999999998  431.24 32  429 32  L 130.869565217391 32  L 4 32  C 1.75999999999999 32  0 30.2399999999998  0 28  Z " fill-rule="nonzero" fill="#ffffff" stroke="none" transform="matrix(1 0 0 1 834 992 )" />
    <path d="M 0 28  L 0 4  C 0 1.76000000000022  1.75999999999999 0  4 0  L 429 0  C 431.24 0  433 1.76000000000022  433 4  L 433 28  C 433 30.2399999999998  431.24 32  429 32  L 130.869565217391 32  L 4 32  C 1.75999999999999 32  0 30.2399999999998  0 28  Z " stroke-width="2" stroke="#d8d8d8" fill="none" transform="matrix(1 0 0 1 834 992 )" mask="url(#clip13)" />
  </g>
</svg>