<?xml version="1.0" encoding="utf-8"?>
<svg version="1.1" xmlns:xlink="http://www.w3.org/1999/xlink" width="178px" height="44px" xmlns="http://www.w3.org/2000/svg">
  <g transform="matrix(1 0 0 1 220 0 )">
    <path d="M -219.5 2  A 1.5 1.5 0 0 1 -218 0.5 L -44 0.5  A 1.5 1.5 0 0 1 -42.5 2 L -42.5 42  A 1.5 1.5 0 0 1 -44 43.5 L -218 43.5  A 1.5 1.5 0 0 1 -219.5 42 L -219.5 2  Z " fill-rule="nonzero" fill="#ffffff" stroke="none" />
    <path d="M -219.5 2  A 1.5 1.5 0 0 1 -218 0.5 L -44 0.5  A 1.5 1.5 0 0 1 -42.5 2 L -42.5 42  A 1.5 1.5 0 0 1 -44 43.5 L -218 43.5  A 1.5 1.5 0 0 1 -219.5 42 L -219.5 2  Z " stroke-width="1" stroke="#5fb878" fill="none" />
  </g>
</svg>