<?xml version="1.0" encoding="utf-8"?>
<svg version="1.1" xmlns:xlink="http://www.w3.org/1999/xlink" width="102px" height="54px" xmlns="http://www.w3.org/2000/svg">
  <g transform="matrix(1 0 0 1 182 0 )">
    <path d="M -181.5 2  A 1.5 1.5 0 0 1 -180 0.5 L -82 0.5  A 1.5 1.5 0 0 1 -80.5 2 L -80.5 52  A 1.5 1.5 0 0 1 -82 53.5 L -180 53.5  A 1.5 1.5 0 0 1 -181.5 52 L -181.5 2  Z " fill-rule="nonzero" fill="#ffffff" stroke="none" />
    <path d="M -181.5 2  A 1.5 1.5 0 0 1 -180 0.5 L -82 0.5  A 1.5 1.5 0 0 1 -80.5 2 L -80.5 52  A 1.5 1.5 0 0 1 -82 53.5 L -180 53.5  A 1.5 1.5 0 0 1 -181.5 52 L -181.5 2  Z " stroke-width="1" stroke="#5fb878" fill="none" />
  </g>
</svg>