<?xml version="1.0" encoding="utf-8"?>
<svg version="1.1" xmlns:xlink="http://www.w3.org/1999/xlink" width="171px" height="44px" xmlns="http://www.w3.org/2000/svg">
  <g transform="matrix(1 0 0 1 42 0 )">
    <path d="M -41.5 2  A 1.5 1.5 0 0 1 -40 0.5 L 127 0.5  A 1.5 1.5 0 0 1 128.5 2 L 128.5 42  A 1.5 1.5 0 0 1 127 43.5 L -40 43.5  A 1.5 1.5 0 0 1 -41.5 42 L -41.5 2  Z " fill-rule="nonzero" fill="#ffffff" stroke="none" />
    <path d="M -41.5 2  A 1.5 1.5 0 0 1 -40 0.5 L 127 0.5  A 1.5 1.5 0 0 1 128.5 2 L 128.5 42  A 1.5 1.5 0 0 1 127 43.5 L -40 43.5  A 1.5 1.5 0 0 1 -41.5 42 L -41.5 2  Z " stroke-width="1" stroke="#5fb878" fill="none" />
  </g>
</svg>