<?xml version="1.0" encoding="utf-8"?>
<svg version="1.1" xmlns:xlink="http://www.w3.org/1999/xlink" width="76px" height="38px" xmlns="http://www.w3.org/2000/svg">
  <g transform="matrix(1 0 0 1 -1132 -78 )">
    <path d="M 1133 80  A 1 1 0 0 1 1134 79 L 1206 79  A 1 1 0 0 1 1207 80 L 1207 114  A 1 1 0 0 1 1206 115 L 1134 115  A 1 1 0 0 1 1133 114 L 1133 80  Z " fill-rule="nonzero" fill="#4bb2ff" stroke="none" fill-opacity="0.8" />
    <path d="M 1132.5 80  A 1.5 1.5 0 0 1 1134 78.5 L 1206 78.5  A 1.5 1.5 0 0 1 1207.5 80 L 1207.5 114  A 1.5 1.5 0 0 1 1206 115.5 L 1134 115.5  A 1.5 1.5 0 0 1 1132.5 114 L 1132.5 80  Z " stroke-width="1" stroke="#4bb2ff" fill="none" stroke-opacity="0.8" />
  </g>
</svg>