<?xml version="1.0" encoding="utf-8"?>
<svg version="1.1" xmlns:xlink="http://www.w3.org/1999/xlink" width="210px" height="43px" xmlns="http://www.w3.org/2000/svg">
  <g transform="matrix(1 0 0 1 -208 0 )">
    <path d="M 208.5 2  A 1.5 1.5 0 0 1 210 0.5 L 416 0.5  A 1.5 1.5 0 0 1 417.5 2 L 417.5 41  A 1.5 1.5 0 0 1 416 42.5 L 210 42.5  A 1.5 1.5 0 0 1 208.5 41 L 208.5 2  Z " fill-rule="nonzero" fill="#ffffff" stroke="none" />
    <path d="M 208.5 2  A 1.5 1.5 0 0 1 210 0.5 L 416 0.5  A 1.5 1.5 0 0 1 417.5 2 L 417.5 41  A 1.5 1.5 0 0 1 416 42.5 L 210 42.5  A 1.5 1.5 0 0 1 208.5 41 L 208.5 2  Z " stroke-width="1" stroke="#5fb878" fill="none" />
  </g>
</svg>