<?xml version="1.0" encoding="utf-8"?>
<svg version="1.1" xmlns:xlink="http://www.w3.org/1999/xlink" width="44px" height="45px" xmlns="http://www.w3.org/2000/svg">
  <g transform="matrix(1 0 0 1 288 0 )">
    <path d="M -287.5 2  A 1.5 1.5 0 0 1 -286 0.5 L -246 0.5  A 1.5 1.5 0 0 1 -244.5 2 L -244.5 43  A 1.5 1.5 0 0 1 -246 44.5 L -286 44.5  A 1.5 1.5 0 0 1 -287.5 43 L -287.5 2  Z " fill-rule="nonzero" fill="#ffffff" stroke="none" />
    <path d="M -287.5 2  A 1.5 1.5 0 0 1 -286 0.5 L -246 0.5  A 1.5 1.5 0 0 1 -244.5 2 L -244.5 43  A 1.5 1.5 0 0 1 -246 44.5 L -286 44.5  A 1.5 1.5 0 0 1 -287.5 43 L -287.5 2  Z " stroke-width="1" stroke="#5fb878" fill="none" />
  </g>
</svg>