<?xml version="1.0" encoding="utf-8"?>
<svg version="1.1" xmlns:xlink="http://www.w3.org/1999/xlink" width="235px" height="43px" xmlns="http://www.w3.org/2000/svg">
  <g transform="matrix(1 0 0 1 25 0 )">
    <path d="M -24.5 2  A 1.5 1.5 0 0 1 -23 0.5 L 208 0.5  A 1.5 1.5 0 0 1 209.5 2 L 209.5 41  A 1.5 1.5 0 0 1 208 42.5 L -23 42.5  A 1.5 1.5 0 0 1 -24.5 41 L -24.5 2  Z " fill-rule="nonzero" fill="#ffffff" stroke="none" />
    <path d="M -24.5 2  A 1.5 1.5 0 0 1 -23 0.5 L 208 0.5  A 1.5 1.5 0 0 1 209.5 2 L 209.5 41  A 1.5 1.5 0 0 1 208 42.5 L -23 42.5  A 1.5 1.5 0 0 1 -24.5 41 L -24.5 2  Z " stroke-width="1" stroke="#5fb878" fill="none" />
  </g>
</svg>