<?xml version="1.0" encoding="utf-8"?>
<svg version="1.1" xmlns:xlink="http://www.w3.org/1999/xlink" width="196px" height="45px" xmlns="http://www.w3.org/2000/svg">
  <g transform="matrix(1 0 0 1 -12 0 )">
    <path d="M 12.5 2  A 1.5 1.5 0 0 1 14 0.5 L 206 0.5  A 1.5 1.5 0 0 1 207.5 2 L 207.5 43  A 1.5 1.5 0 0 1 206 44.5 L 14 44.5  A 1.5 1.5 0 0 1 12.5 43 L 12.5 2  Z " fill-rule="nonzero" fill="#ffffff" stroke="none" />
    <path d="M 12.5 2  A 1.5 1.5 0 0 1 14 0.5 L 206 0.5  A 1.5 1.5 0 0 1 207.5 2 L 207.5 43  A 1.5 1.5 0 0 1 206 44.5 L 14 44.5  A 1.5 1.5 0 0 1 12.5 43 L 12.5 2  Z " stroke-width="1" stroke="#5fb878" fill="none" />
  </g>
</svg>