<?xml version="1.0" encoding="utf-8"?>
<svg version="1.1" xmlns:xlink="http://www.w3.org/1999/xlink" width="108px" height="45px" xmlns="http://www.w3.org/2000/svg">
  <g transform="matrix(1 0 0 1 -313 0 )">
    <path d="M 313.5 2  A 1.5 1.5 0 0 1 315 0.5 L 419 0.5  A 1.5 1.5 0 0 1 420.5 2 L 420.5 43  A 1.5 1.5 0 0 1 419 44.5 L 315 44.5  A 1.5 1.5 0 0 1 313.5 43 L 313.5 2  Z " fill-rule="nonzero" fill="#ffffff" stroke="none" />
    <path d="M 313.5 2  A 1.5 1.5 0 0 1 315 0.5 L 419 0.5  A 1.5 1.5 0 0 1 420.5 2 L 420.5 43  A 1.5 1.5 0 0 1 419 44.5 L 315 44.5  A 1.5 1.5 0 0 1 313.5 43 L 313.5 2  Z " stroke-width="1" stroke="#5fb878" fill="none" />
  </g>
</svg>