<?xml version="1.0" encoding="utf-8"?>
<svg version="1.1" xmlns:xlink="http://www.w3.org/1999/xlink" width="219px" height="43px" xmlns="http://www.w3.org/2000/svg">
  <g transform="matrix(1 0 0 1 244 0 )">
    <path d="M -243.5 2  A 1.5 1.5 0 0 1 -242 0.5 L -27 0.5  A 1.5 1.5 0 0 1 -25.5 2 L -25.5 41  A 1.5 1.5 0 0 1 -27 42.5 L -242 42.5  A 1.5 1.5 0 0 1 -243.5 41 L -243.5 2  Z " fill-rule="nonzero" fill="#ffffff" stroke="none" />
    <path d="M -243.5 2  A 1.5 1.5 0 0 1 -242 0.5 L -27 0.5  A 1.5 1.5 0 0 1 -25.5 2 L -25.5 41  A 1.5 1.5 0 0 1 -27 42.5 L -242 42.5  A 1.5 1.5 0 0 1 -243.5 41 L -243.5 2  Z " stroke-width="1" stroke="#5fb878" fill="none" />
  </g>
</svg>