<?xml version="1.0" encoding="utf-8"?>
<svg version="1.1" xmlns:xlink="http://www.w3.org/1999/xlink" width="76px" height="31px" xmlns="http://www.w3.org/2000/svg">
  <g transform="matrix(1 0 0 1 -1074 -255 )">
    <path d="M 1075 257  A 1 1 0 0 1 1076 256 L 1148 256  A 1 1 0 0 1 1149 257 L 1149 284  A 1 1 0 0 1 1148 285 L 1076 285  A 1 1 0 0 1 1075 284 L 1075 257  Z " fill-rule="nonzero" fill="#4bb2ff" stroke="none" fill-opacity="0.8" />
    <path d="M 1074.5 257  A 1.5 1.5 0 0 1 1076 255.5 L 1148 255.5  A 1.5 1.5 0 0 1 1149.5 257 L 1149.5 284  A 1.5 1.5 0 0 1 1148 285.5 L 1076 285.5  A 1.5 1.5 0 0 1 1074.5 284 L 1074.5 257  Z " stroke-width="1" stroke="#4bb2ff" fill="none" stroke-opacity="0.8" />
  </g>
</svg>