<?xml version="1.0" encoding="utf-8"?>
<svg version="1.1" xmlns:xlink="http://www.w3.org/1999/xlink" width="80px" height="35px" xmlns="http://www.w3.org/2000/svg">
  <g transform="matrix(1 0 0 1 -1108 -262 )">
    <path d="M 1108.5 264  A 1.5 1.5 0 0 1 1110 262.5 L 1186 262.5  A 1.5 1.5 0 0 1 1187.5 264 L 1187.5 295  A 1.5 1.5 0 0 1 1186 296.5 L 1110 296.5  A 1.5 1.5 0 0 1 1108.5 295 L 1108.5 264  Z " fill-rule="nonzero" fill="#4bb2ff" stroke="none" />
    <path d="M 1108.5 264  A 1.5 1.5 0 0 1 1110 262.5 L 1186 262.5  A 1.5 1.5 0 0 1 1187.5 264 L 1187.5 295  A 1.5 1.5 0 0 1 1186 296.5 L 1110 296.5  A 1.5 1.5 0 0 1 1108.5 295 L 1108.5 264  Z " stroke-width="1" stroke="#4bb2ff" fill="none" />
  </g>
</svg>