<?xml version="1.0" encoding="utf-8"?>
<svg version="1.1" xmlns:xlink="http://www.w3.org/1999/xlink" width="175px" height="176px" xmlns="http://www.w3.org/2000/svg">
  <g transform="matrix(1 0 0 1 -213 -245 )">
    <path d="M 0.5890273967741 98.9166203807936  C 0.25316093602072 98.0769542289102  8.13711583924345 97.7328605200944  12.8652482269503 97.2600472813238  C 17.5933806146572 96.7872340425532  87.2782681746342 89.1130232818936  87.5 88.5  C 87.7931034482759 87.6896551724138  87.5993537964459 0.962843295638152  87.5 1  C 87.4006462035541 1.03715670436185  87.0047915779888 0.754345543762668  87.5 1  C 87.9952084220112 1.24565445623733  82.509081427965 1  87.5 1  C 136.5 1  175 39.5  175 88.5  C 175 137.5  136.5 176  87.5 176  C 42.0301967599197 176  5.60195185814098 142.847619426228  0.5890273967741 98.9166203807936  C 0.5890273967741 98.9166203807936  1.96833774160166 102.364896242863  0.5890273967741 98.9166203807936  Z " fill-rule="nonzero" fill="#3ed9f7" stroke="none" transform="matrix(1 0 0 1 213 245 )" />
  </g>
</svg>