<?xml version="1.0" encoding="utf-8"?>
<svg version="1.1" xmlns:xlink="http://www.w3.org/1999/xlink" width="24px" height="24px" xmlns="http://www.w3.org/2000/svg">
  <g transform="matrix(1 0 0 1 -1949 -5077 )">
    <path d="M 1961 5077  C 1967.72 5077  1973 5082.28  1973 5089  C 1973 5095.72  1967.72 5101  1961 5101  C 1954.28 5101  1949 5095.72  1949 5089  C 1949 5082.28  1954.28 5077  1961 5077  Z " fill-rule="nonzero" fill="#ffffff" stroke="none" />
    <path d="M 1961 5077.5  C 1967.44 5077.5  1972.5 5082.56  1972.5 5089  C 1972.5 5095.44  1967.44 5100.5  1961 5100.5  C 1954.56 5100.5  1949.5 5095.44  1949.5 5089  C 1949.5 5082.56  1954.56 5077.5  1961 5077.5  Z " stroke-width="1" stroke="#797979" fill="none" />
  </g>
</svg>