<?xml version="1.0" encoding="utf-8"?>
<svg version="1.1" xmlns:xlink="http://www.w3.org/1999/xlink" width="330px" height="40px" xmlns="http://www.w3.org/2000/svg">
  <defs>
    <mask fill="white" id="clip54">
      <path d="M 0 35  L 0 5  C 0 2.20000000000053  1.34133949191703 0  3.04849884526559 0  L 326.951501154734 0  C 328.658660508083 0  330 2.20000000000053  330 5  L 330 35  C 330 37.7999999999995  328.658660508083 40  326.951501154734 40  L 135.508762396414 40  L 99.7389296114069 40  L 3.04849884526559 40  C 1.34133949191703 40  0 37.7999999999995  0 35  Z " fill-rule="evenodd" />
    </mask>
  </defs>
  <g transform="matrix(1 0 0 1 -1909 -5189 )">
    <path d="M 0 35  L 0 5  C 0 2.20000000000053  1.34133949191703 0  3.04849884526559 0  L 326.951501154734 0  C 328.658660508083 0  330 2.20000000000053  330 5  L 330 35  C 330 37.7999999999995  328.658660508083 40  326.951501154734 40  L 135.508762396414 40  L 99.7389296114069 40  L 3.04849884526559 40  C 1.34133949191703 40  0 37.7999999999995  0 35  Z " fill-rule="nonzero" fill="#ffffff" stroke="none" transform="matrix(1 0 0 1 1909 5189 )" />
    <path d="M 0 35  L 0 5  C 0 2.20000000000053  1.34133949191703 0  3.04849884526559 0  L 326.951501154734 0  C 328.658660508083 0  330 2.20000000000053  330 5  L 330 35  C 330 37.7999999999995  328.658660508083 40  326.951501154734 40  L 135.508762396414 40  L 99.7389296114069 40  L 3.04849884526559 40  C 1.34133949191703 40  0 37.7999999999995  0 35  Z " stroke-width="2" stroke="#d9d9d9" fill="none" transform="matrix(1 0 0 1 1909 5189 )" mask="url(#clip54)" />
  </g>
</svg>