<?xml version="1.0" encoding="utf-8"?>
<svg version="1.1" xmlns:xlink="http://www.w3.org/1999/xlink" width="20px" height="20px" xmlns="http://www.w3.org/2000/svg">
  <g transform="matrix(1 0 0 1 -1690 -2262 )">
    <path d="M 1700 2262  C 1705.6 2262  1710 2266.4  1710 2272  C 1710 2277.6  1705.6 2282  1700 2282  C 1694.4 2282  1690 2277.6  1690 2272  C 1690 2266.4  1694.4 2262  1700 2262  Z " fill-rule="nonzero" fill="#ffffff" stroke="none" />
    <path d="M 1700 2262.5  C 1705.32 2262.5  1709.5 2266.68  1709.5 2272  C 1709.5 2277.32  1705.32 2281.5  1700 2281.5  C 1694.68 2281.5  1690.5 2277.32  1690.5 2272  C 1690.5 2266.68  1694.68 2262.5  1700 2262.5  Z " stroke-width="1" stroke="#797979" fill="none" />
  </g>
</svg>