<?xml version="1.0" encoding="utf-8"?>
<svg version="1.1" xmlns:xlink="http://www.w3.org/1999/xlink" width="489px" height="47px" xmlns="http://www.w3.org/2000/svg">
  <defs>
    <mask fill="white" id="clip16">
      <path d="M 0 41.125  L 0 5.875  C 0 2.58500000000032  1.98762124711315 0  4.51732101616628 0  L 484.482678983834 0  C 487.012378752887 0  489 2.58500000000032  489 5.875  L 489 41.125  C 489 44.4149999999997  487.012378752887 47  484.482678983834 47  L 147.794959333266 47  L 4.51732101616628 47  C 1.98762124711315 47  0 44.4149999999997  0 41.125  Z " fill-rule="evenodd" />
    </mask>
  </defs>
  <g transform="matrix(1 0 0 1 -4710 -2245 )">
    <path d="M 0 41.125  L 0 5.875  C 0 2.58500000000032  1.98762124711315 0  4.51732101616628 0  L 484.482678983834 0  C 487.012378752887 0  489 2.58500000000032  489 5.875  L 489 41.125  C 489 44.4149999999997  487.012378752887 47  484.482678983834 47  L 147.794959333266 47  L 4.51732101616628 47  C 1.98762124711315 47  0 44.4149999999997  0 41.125  Z " fill-rule="nonzero" fill="#ffffff" stroke="none" transform="matrix(1 0 0 1 4710 2245 )" />
    <path d="M 0 41.125  L 0 5.875  C 0 2.58500000000032  1.98762124711315 0  4.51732101616628 0  L 484.482678983834 0  C 487.012378752887 0  489 2.58500000000032  489 5.875  L 489 41.125  C 489 44.4149999999997  487.012378752887 47  484.482678983834 47  L 147.794959333266 47  L 4.51732101616628 47  C 1.98762124711315 47  0 44.4149999999997  0 41.125  Z " stroke-width="2" stroke="#d8d8d8" fill="none" transform="matrix(1 0 0 1 4710 2245 )" mask="url(#clip16)" />
  </g>
</svg>