<?xml version="1.0" encoding="utf-8"?>
<svg version="1.1" xmlns:xlink="http://www.w3.org/1999/xlink" width="343px" height="36px" xmlns="http://www.w3.org/2000/svg">
  <defs>
    <mask fill="white" id="clip17">
      <path d="M 0 31.5  L 0 4.5  C 0 1.98000000000047  1.3941801385683 0  3.16859122401848 0  L 339.831408775982 0  C 341.605819861432 0  343 1.98000000000047  343 4.5  L 343 31.5  C 343 34.0199999999995  341.605819861432 36  339.831408775982 36  L 140.846986369606 36  L 103.668038959735 36  L 3.16859122401848 36  C 1.3941801385683 36  0 34.0199999999995  0 31.5  Z " fill-rule="evenodd" />
    </mask>
  </defs>
  <g transform="matrix(1 0 0 1 -2358 -2788 )">
    <path d="M 0 31.5  L 0 4.5  C 0 1.98000000000047  1.3941801385683 0  3.16859122401848 0  L 339.831408775982 0  C 341.605819861432 0  343 1.98000000000047  343 4.5  L 343 31.5  C 343 34.0199999999995  341.605819861432 36  339.831408775982 36  L 140.846986369606 36  L 103.668038959735 36  L 3.16859122401848 36  C 1.3941801385683 36  0 34.0199999999995  0 31.5  Z " fill-rule="nonzero" fill="#ffffff" stroke="none" transform="matrix(1 0 0 1 2358 2788 )" />
    <path d="M 0 31.5  L 0 4.5  C 0 1.98000000000047  1.3941801385683 0  3.16859122401848 0  L 339.831408775982 0  C 341.605819861432 0  343 1.98000000000047  343 4.5  L 343 31.5  C 343 34.0199999999995  341.605819861432 36  339.831408775982 36  L 140.846986369606 36  L 103.668038959735 36  L 3.16859122401848 36  C 1.3941801385683 36  0 34.0199999999995  0 31.5  Z " stroke-width="2" stroke="#d8d8d8" fill="none" transform="matrix(1 0 0 1 2358 2788 )" mask="url(#clip17)" />
  </g>
</svg>