<?xml version="1.0" encoding="utf-8"?>
<svg version="1.1" xmlns:xlink="http://www.w3.org/1999/xlink" width="127px" height="10px" preserveAspectRatio="xMinYMid meet" viewBox="665 3135  127 8" xmlns="http://www.w3.org/2000/svg">
  <path d="M 548 1673  L 697 1673  A 3 3 0 0 1 700 1670 A 3 3 0 0 1 703 1673 L 732 1673  A 3 3 0 0 1 735 1670 A 3 3 0 0 1 738 1673 L 782 1673  A 5 5 0 0 1 787 1678 L 787 3134  A 5 5 0 0 1 782 3139 L 738 3139  A 3 3 0 0 0 735 3136 A 3 3 0 0 0 732 3139 L 665 3139  " stroke-width="2" stroke="#3bb34e" fill="none" />
</svg>