<?xml version="1.0" encoding="utf-8"?>
<svg version="1.1" xmlns:xlink="http://www.w3.org/1999/xlink" width="170px" height="10px" preserveAspectRatio="xMinYMid meet" viewBox="665 4365  170 8" xmlns="http://www.w3.org/2000/svg">
  <path d="M 503 1730  L 697 1730  A 3 3 0 0 1 700 1727 A 3 3 0 0 1 703 1730 L 732 1730  A 3 3 0 0 1 735 1727 A 3 3 0 0 1 738 1730 L 784 1730  A 3 3 0 0 1 787 1727 A 3 3 0 0 1 790 1730 L 825 1730  A 5 5 0 0 1 830 1735 L 830 4364  A 5 5 0 0 1 825 4369 L 738 4369  A 3 3 0 0 0 735 4366 A 3 3 0 0 0 732 4369 L 665 4369  " stroke-width="2" stroke="#bc00cc" fill="none" />
</svg>