<?xml version="1.0" encoding="utf-8"?>
<svg version="1.1" xmlns:xlink="http://www.w3.org/1999/xlink" width="10px" height="3876px" preserveAspectRatio="xMidYMin meet" viewBox="963 1769  8 3876" xmlns="http://www.w3.org/2000/svg">
  <path d="M 535 1774  L 587 1774  A 3 3 0 0 1 590 1771 A 3 3 0 0 1 593 1774 L 737 1774  A 3 3 0 0 1 740 1771 A 3 3 0 0 1 743 1774 L 789 1774  A 3 3 0 0 1 792 1771 A 3 3 0 0 1 795 1774 L 962 1774  A 5 5 0 0 1 967 1779 L 967 5635  A 5 5 0 0 1 962 5640 L 743 5640  A 3 3 0 0 0 740 5637 A 3 3 0 0 0 737 5640 L 699 5640  " stroke-width="2" stroke="#01d9c0" fill="none" />
</svg>