<?xml version="1.0" encoding="utf-8"?>
<svg version="1.1" xmlns:xlink="http://www.w3.org/1999/xlink" width="224px" height="10px" preserveAspectRatio="xMinYMid meet" viewBox="622 652  224 8" xmlns="http://www.w3.org/2000/svg">
  <path d="M 622 656  L 693 656  A 3 3 0 0 1 696 653 A 3 3 0 0 1 699 656 L 744 656  A 3 3 0 0 1 747 653 A 3 3 0 0 1 750 656 L 791 656  A 3 3 0 0 1 794 653 A 3 3 0 0 1 797 656 L 836 656  A 5 5 0 0 1 841 661 L 841 1863  A 3 3 0 0 1 844 1866 A 3 3 0 0 1 841 1869 L 841 3123  A 5 5 0 0 0 846 3128 L 916 3128  " stroke-width="2" stroke="#9200ac" fill="none" />
</svg>