<?xml version="1.0" encoding="utf-8"?>
<svg version="1.1" xmlns:xlink="http://www.w3.org/1999/xlink" width="171px" height="10px" preserveAspectRatio="xMinYMid meet" viewBox="697 4399  171 8" xmlns="http://www.w3.org/2000/svg">
  <path d="M 535 1896  L 587 1896  A 3 3 0 0 1 590 1893 A 3 3 0 0 1 593 1896 L 737 1896  A 3 3 0 0 1 740 1893 A 3 3 0 0 1 743 1896 L 789 1896  A 3 3 0 0 1 792 1893 A 3 3 0 0 1 795 1896 L 858 1896  A 5 5 0 0 1 863 1901 L 863 4398  A 5 5 0 0 1 858 4403 L 743 4403  A 3 3 0 0 0 740 4400 A 3 3 0 0 0 737 4403 L 697 4403  " stroke-width="2" stroke="#8143d3" fill="none" />
</svg>