<?xml version="1.0" encoding="utf-8"?>
<svg version="1.1" xmlns:xlink="http://www.w3.org/1999/xlink" width="158px" height="10px" preserveAspectRatio="xMinYMid meet" viewBox="698 4402  158 8" xmlns="http://www.w3.org/2000/svg">
  <path d="M 535 1751  L 675 1751  A 3 3 0 0 1 678 1748 A 3 3 0 0 1 681 1751 L 737 1751  A 3 3 0 0 1 740 1748 A 3 3 0 0 1 743 1751 L 789 1751  A 3 3 0 0 1 792 1748 A 3 3 0 0 1 795 1751 L 846 1751  A 5 5 0 0 1 851 1756 L 851 4401  A 5 5 0 0 1 846 4406 L 743 4406  A 3 3 0 0 0 740 4403 A 3 3 0 0 0 737 4406 L 698 4406  " stroke-width="2" stroke="#bd00f9" fill="none" />
</svg>