<?xml version="1.0" encoding="utf-8"?>
<svg version="1.1" xmlns:xlink="http://www.w3.org/1999/xlink" width="437px" height="10px" preserveAspectRatio="xMinYMid meet" viewBox="535 1826  437 8" xmlns="http://www.w3.org/2000/svg">
  <path d="M 535 1830  L 675 1830  A 3 3 0 0 1 678 1827 A 3 3 0 0 1 681 1830 L 737 1830  A 3 3 0 0 1 740 1827 A 3 3 0 0 1 743 1830 L 789 1830  A 3 3 0 0 1 792 1827 A 3 3 0 0 1 795 1830 L 848 1830  A 3 3 0 0 1 851 1827 A 3 3 0 0 1 854 1830 L 962 1830  A 5 5 0 0 1 967 1835 L 967 5635  A 5 5 0 0 1 962 5640 L 743 5640  A 3 3 0 0 0 740 5637 A 3 3 0 0 0 737 5640 L 699 5640  " stroke-width="2" stroke="#01d9c0" fill="none" />
</svg>