<?xml version="1.0" encoding="utf-8"?>
<svg version="1.1" xmlns:xlink="http://www.w3.org/1999/xlink" width="110px" height="41px" xmlns="http://www.w3.org/2000/svg">
  <g transform="matrix(1 0 0 1 17 0 )">
    <path d="M -16.5 2  A 1.5 1.5 0 0 1 -15 0.5 L 91 0.5  A 1.5 1.5 0 0 1 92.5 2 L 92.5 39  A 1.5 1.5 0 0 1 91 40.5 L -15 40.5  A 1.5 1.5 0 0 1 -16.5 39 L -16.5 2  Z " fill-rule="nonzero" fill="#ffffff" stroke="none" />
    <path d="M -16.5 2  A 1.5 1.5 0 0 1 -15 0.5 L 91 0.5  A 1.5 1.5 0 0 1 92.5 2 L 92.5 39  A 1.5 1.5 0 0 1 91 40.5 L -15 40.5  A 1.5 1.5 0 0 1 -16.5 39 L -16.5 2  Z " stroke-width="1" stroke="#5fb878" fill="none" />
  </g>
</svg>