<?xml version="1.0" encoding="utf-8"?>
<svg version="1.1" xmlns:xlink="http://www.w3.org/1999/xlink" width="107px" height="41px" xmlns="http://www.w3.org/2000/svg">
  <g transform="matrix(1 0 0 1 235 0 )">
    <path d="M -234.5 2  A 1.5 1.5 0 0 1 -233 0.5 L -130 0.5  A 1.5 1.5 0 0 1 -128.5 2 L -128.5 39  A 1.5 1.5 0 0 1 -130 40.5 L -233 40.5  A 1.5 1.5 0 0 1 -234.5 39 L -234.5 2  Z " fill-rule="nonzero" fill="#ffffff" stroke="none" />
    <path d="M -234.5 2  A 1.5 1.5 0 0 1 -233 0.5 L -130 0.5  A 1.5 1.5 0 0 1 -128.5 2 L -128.5 39  A 1.5 1.5 0 0 1 -130 40.5 L -233 40.5  A 1.5 1.5 0 0 1 -234.5 39 L -234.5 2  Z " stroke-width="1" stroke="#5fb878" fill="none" />
  </g>
</svg>