<?xml version="1.0" encoding="utf-8"?>
<svg version="1.1" xmlns:xlink="http://www.w3.org/1999/xlink" width="109px" height="41px" xmlns="http://www.w3.org/2000/svg">
  <g transform="matrix(1 0 0 1 -204 0 )">
    <path d="M 204.5 2  A 1.5 1.5 0 0 1 206 0.5 L 311 0.5  A 1.5 1.5 0 0 1 312.5 2 L 312.5 39  A 1.5 1.5 0 0 1 311 40.5 L 206 40.5  A 1.5 1.5 0 0 1 204.5 39 L 204.5 2  Z " fill-rule="nonzero" fill="#ffffff" stroke="none" />
    <path d="M 204.5 2  A 1.5 1.5 0 0 1 206 0.5 L 311 0.5  A 1.5 1.5 0 0 1 312.5 2 L 312.5 39  A 1.5 1.5 0 0 1 311 40.5 L 206 40.5  A 1.5 1.5 0 0 1 204.5 39 L 204.5 2  Z " stroke-width="1" stroke="#5fb878" fill="none" />
  </g>
</svg>