<?xml version="1.0" encoding="utf-8"?>
<svg version="1.1" xmlns:xlink="http://www.w3.org/1999/xlink" width="56px" height="35px" xmlns="http://www.w3.org/2000/svg">
  <g transform="matrix(1 0 0 1 -1025 -153 )">
    <path d="M 1026 155  A 1 1 0 0 1 1027 154 L 1079 154  A 1 1 0 0 1 1080 155 L 1080 186  A 1 1 0 0 1 1079 187 L 1027 187  A 1 1 0 0 1 1026 186 L 1026 155  Z " fill-rule="nonzero" fill="#4bb2ff" stroke="none" fill-opacity="0.8" />
    <path d="M 1025.5 155  A 1.5 1.5 0 0 1 1027 153.5 L 1079 153.5  A 1.5 1.5 0 0 1 1080.5 155 L 1080.5 186  A 1.5 1.5 0 0 1 1079 187.5 L 1027 187.5  A 1.5 1.5 0 0 1 1025.5 186 L 1025.5 155  Z " stroke-width="1" stroke="#4bb2ff" fill="none" stroke-opacity="0.8" />
  </g>
</svg>