<?xml version="1.0" encoding="utf-8"?>
<svg version="1.1" xmlns:xlink="http://www.w3.org/1999/xlink" width="71px" height="38px" xmlns="http://www.w3.org/2000/svg">
  <g transform="matrix(1 0 0 1 -7190 -196 )">
    <path d="M 7191 198  A 1 1 0 0 1 7192 197 L 7259 197  A 1 1 0 0 1 7260 198 L 7260 232  A 1 1 0 0 1 7259 233 L 7192 233  A 1 1 0 0 1 7191 232 L 7191 198  Z " fill-rule="nonzero" fill="#4bb2ff" stroke="none" fill-opacity="0.8" />
    <path d="M 7190.5 198  A 1.5 1.5 0 0 1 7192 196.5 L 7259 196.5  A 1.5 1.5 0 0 1 7260.5 198 L 7260.5 232  A 1.5 1.5 0 0 1 7259 233.5 L 7192 233.5  A 1.5 1.5 0 0 1 7190.5 232 L 7190.5 198  Z " stroke-width="1" stroke="#4bb2ff" fill="none" stroke-opacity="0.8" />
  </g>
</svg>