<?xml version="1.0" encoding="utf-8"?>
<svg version="1.1" xmlns:xlink="http://www.w3.org/1999/xlink" width="25px" height="28px" xmlns="http://www.w3.org/2000/svg">
  <g transform="matrix(1 0 0 1 -456 -100 )">
    <path d="M 468.5 100  C 475.5 100  481 106.16  481 114  C 481 121.84  475.5 128  468.5 128  C 461.5 128  456 121.84  456 114  C 456 106.16  461.5 100  468.5 100  Z " fill-rule="nonzero" fill="#000000" stroke="none" />
    <path d="M 468.5 100.5  C 475.22 100.5  480.5 106.44  480.5 114  C 480.5 121.56  475.22 127.5  468.5 127.5  C 461.78 127.5  456.5 121.56  456.5 114  C 456.5 106.44  461.78 100.5  468.5 100.5  Z " stroke-width="1" stroke="#797979" fill="none" />
  </g>
</svg>