<?xml version="1.0" encoding="utf-8"?>
<svg version="1.1" xmlns:xlink="http://www.w3.org/1999/xlink" width="84px" height="31px" xmlns="http://www.w3.org/2000/svg">
  <defs>
    <mask fill="white" id="clip18">
      <path d="M 0 31  L 0 0  L 49.945945945946 0  L 55.6216216216216 0  L 60.1621621621622 0  L 84 0  L 84 31  L 49.945945945946 31  L 42 31  L 0 31  Z " fill-rule="evenodd" />
    </mask>
  </defs>
  <g transform="matrix(1 0 0 1 -960 -253 )">
    <path d="M 0 31  L 0 0  L 49.945945945946 0  L 55.6216216216216 0  L 60.1621621621622 0  L 84 0  L 84 31  L 49.945945945946 31  L 42 31  L 0 31  Z " fill-rule="nonzero" fill="#f2f2f2" stroke="none" transform="matrix(1 0 0 1 960 253 )" />
    <path d="M 0 31  L 0 0  L 49.945945945946 0  L 55.6216216216216 0  L 60.1621621621622 0  L 84 0  L 84 31  L 49.945945945946 31  L 42 31  L 0 31  Z " stroke-width="2" stroke="#000000" fill="none" stroke-opacity="0.2" transform="matrix(1 0 0 1 960 253 )" mask="url(#clip18)" />
  </g>
</svg>