<?xml version="1.0" encoding="utf-8"?>
<svg version="1.1" xmlns:xlink="http://www.w3.org/1999/xlink" width="167px" height="30px" xmlns="http://www.w3.org/2000/svg">
  <defs>
    <mask fill="white" id="clip5">
      <path d="M 0 30  L 0 0  L 119.608108108108 0  L 167 0  L 167 30  L 99.2972972972973 30  L 0 30  Z " fill-rule="evenodd" />
    </mask>
  </defs>
  <g transform="matrix(1 0 0 1 -960 -223 )">
    <path d="M 0 30  L 0 0  L 119.608108108108 0  L 167 0  L 167 30  L 99.2972972972973 30  L 0 30  Z " fill-rule="nonzero" fill="#f2f2f2" stroke="none" transform="matrix(1 0 0 1 960 223 )" />
    <path d="M 0 30  L 0 0  L 119.608108108108 0  L 167 0  L 167 30  L 99.2972972972973 30  L 0 30  Z " stroke-width="2" stroke="#000000" fill="none" stroke-opacity="0.2" transform="matrix(1 0 0 1 960 223 )" mask="url(#clip5)" />
  </g>
</svg>