<?xml version="1.0" encoding="utf-8"?>
<svg version="1.1" xmlns:xlink="http://www.w3.org/1999/xlink" width="89px" height="10px" preserveAspectRatio="xMinYMid meet" viewBox="696 3093  89 8" xmlns="http://www.w3.org/2000/svg">
  <path d="M 532 1660  L 720 1660  A 3 3 0 0 1 723 1657 A 3 3 0 0 1 726 1660 L 746 1660  A 3 3 0 0 1 749 1657 A 3 3 0 0 1 752 1660 L 775 1660  A 5 5 0 0 1 780 1665 L 780 3092  A 5 5 0 0 1 775 3097 L 752 3097  A 3 3 0 0 0 749 3094 A 3 3 0 0 0 746 3097 L 696 3097  " stroke-width="2" stroke="#0e53d9" fill="none" />
</svg>