<?xml version="1.0" encoding="utf-8"?>
<svg version="1.1" xmlns:xlink="http://www.w3.org/1999/xlink" width="137px" height="10px" preserveAspectRatio="xMinYMid meet" viewBox="641 3108  137 8" xmlns="http://www.w3.org/2000/svg">
  <path d="M 477 1658  L 682 1658  A 3 3 0 0 1 685 1655 A 3 3 0 0 1 688 1658 L 718.311475409836 1658  A 3 3 0 0 1 721.311475409836 1655 A 3 3 0 0 1 724.311475409836 1658 L 768 1658  A 5 5 0 0 1 773 1663 L 773 3107  A 5 5 0 0 1 768 3112 L 724.311475409836 3112  A 3 3 0 0 0 721.311475409836 3109 A 3 3 0 0 0 718.311475409836 3112 L 641 3112  " stroke-width="2" stroke="#25a211" fill="none" />
</svg>